<svg width="32" height="32" viewBox="0 0 32 32" fill="none" xmlns="http://www.w3.org/2000/svg">
<path d="M20 0H18.6667V1.33333H20V0Z" fill="#E8E8E8"/>
<path d="M21.3333 0H20V1.33333H21.3333V0Z" fill="#E8E8E8"/>
<path d="M22.6667 0H21.3333V1.33333H22.6667V0Z" fill="#E8E8E8"/>
<path d="M24 0H22.6667V1.33333H24V0Z" fill="#E8E8E8"/>
<path d="M20 1.33203H18.6667V2.66536H20V1.33203Z" fill="#E8E8E8"/>
<path d="M21.3333 1.33203H20V2.66536H21.3333V1.33203Z" fill="#E8E8E8"/>
<path d="M22.6667 1.33203H21.3333V2.66536H22.6667V1.33203Z" fill="#E8E8E8"/>
<path d="M24 1.33203H22.6667V2.66536H24V1.33203Z" fill="#E8E8E8"/>
<path d="M17.3333 2.66797H16V4.0013H17.3333V2.66797Z" fill="#E8E8E8"/>
<path d="M18.6667 2.66797H17.3333V4.0013H18.6667V2.66797Z" fill="#E8E8E8"/>
<path d="M25.3333 2.66797H24V4.0013H25.3333V2.66797Z" fill="#E8E8E8"/>
<path d="M26.6667 2.66797H25.3333V4.0013H26.6667V2.66797Z" fill="#E8E8E8"/>
<path d="M17.3333 4H16V5.33333H17.3333V4Z" fill="#E8E8E8"/>
<path d="M18.6667 4H17.3333V5.33333H18.6667V4Z" fill="#E8E8E8"/>
<path d="M25.3333 4H24V5.33333H25.3333V4Z" fill="#E8E8E8"/>
<path d="M26.6667 4H25.3333V5.33333H26.6667V4Z" fill="#E8E8E8"/>
<path d="M14.6667 5.33203H13.3333V6.66536H14.6667V5.33203Z" fill="#E8E8E8"/>
<path d="M16 5.33203H14.6667V6.66536H16V5.33203Z" fill="#E8E8E8"/>
<path d="M28 5.33203H26.6667V6.66536H28V5.33203Z" fill="#E8E8E8"/>
<path d="M29.3333 5.33203H28V6.66536H29.3333V5.33203Z" fill="#E8E8E8"/>
<path d="M14.6667 6.66797H13.3333V8.0013H14.6667V6.66797Z" fill="#E8E8E8"/>
<path d="M16 6.66797H14.6667V8.0013H16V6.66797Z" fill="#E8E8E8"/>
<path d="M28 6.66797H26.6667V8.0013H28V6.66797Z" fill="#E8E8E8"/>
<path d="M29.3333 6.66797H28V8.0013H29.3333V6.66797Z" fill="#E8E8E8"/>
<path d="M12 8H10.6667V9.33333H12V8Z" fill="#E8E8E8"/>
<path d="M13.3333 8H12V9.33333H13.3333V8Z" fill="#E8E8E8"/>
<path d="M30.6667 8H29.3333V9.33333H30.6667V8Z" fill="#E8E8E8"/>
<path d="M32 8H30.6667V9.33333H32V8Z" fill="#E8E8E8"/>
<path d="M12 9.33203H10.6667V10.6654H12V9.33203Z" fill="#E8E8E8"/>
<path d="M13.3333 9.33203H12V10.6654H13.3333V9.33203Z" fill="#E8E8E8"/>
<path d="M30.6667 9.33203H29.3333V10.6654H30.6667V9.33203Z" fill="#E8E8E8"/>
<path d="M32 9.33203H30.6667V10.6654H32V9.33203Z" fill="#E8E8E8"/>
<path d="M9.33333 10.668H8V12.0013H9.33333V10.668Z" fill="#E8E8E8"/>
<path d="M10.6667 10.668H9.33333V12.0013H10.6667V10.668Z" fill="#E8E8E8"/>
<path d="M30.6667 10.668H29.3333V12.0013H30.6667V10.668Z" fill="#E8E8E8"/>
<path d="M32 10.668H30.6667V12.0013H32V10.668Z" fill="#E8E8E8"/>
<path d="M9.33333 12H8V13.3333H9.33333V12Z" fill="#E8E8E8"/>
<path d="M10.6667 12H9.33333V13.3333H10.6667V12Z" fill="#E8E8E8"/>
<path d="M30.6667 12H29.3333V13.3333H30.6667V12Z" fill="#E8E8E8"/>
<path d="M32 12H30.6667V13.3333H32V12Z" fill="#E8E8E8"/>
<path d="M6.66666 13.332H5.33333V14.6654H6.66666V13.332Z" fill="#E8E8E8"/>
<path d="M8.00001 13.332H6.66667V14.6654H8.00001V13.332Z" fill="#E8E8E8"/>
<path d="M28 13.332H26.6667V14.6654H28V13.332Z" fill="#E8E8E8"/>
<path d="M29.3333 13.332H28V14.6654H29.3333V13.332Z" fill="#E8E8E8"/>
<path d="M6.66666 14.668H5.33333V16.0013H6.66666V14.668Z" fill="#E8E8E8"/>
<path d="M8.00001 14.668H6.66667V16.0013H8.00001V14.668Z" fill="#E8E8E8"/>
<path d="M28 14.668H26.6667V16.0013H28V14.668Z" fill="#E8E8E8"/>
<path d="M29.3333 14.668H28V16.0013H29.3333V14.668Z" fill="#E8E8E8"/>
<path d="M4.00001 16H2.66667V17.3333H4.00001V16Z" fill="#E8E8E8"/>
<path d="M5.33333 16H4V17.3333H5.33333V16Z" fill="#E8E8E8"/>
<path d="M25.3333 16H24V17.3333H25.3333V16Z" fill="#E8E8E8"/>
<path d="M26.6667 16H25.3333V17.3333H26.6667V16Z" fill="#E8E8E8"/>
<path d="M4.00001 17.332H2.66667V18.6654H4.00001V17.332Z" fill="#E8E8E8"/>
<path d="M5.33333 17.332H4V18.6654H5.33333V17.332Z" fill="#E8E8E8"/>
<path d="M25.3333 17.332H24V18.6654H25.3333V17.332Z" fill="#E8E8E8"/>
<path d="M26.6667 17.332H25.3333V18.6654H26.6667V17.332Z" fill="#E8E8E8"/>
<path d="M1.33333 18.668H0V20.0013H1.33333V18.668Z" fill="#E8E8E8"/>
<path d="M2.66666 18.668H1.33333V20.0013H2.66666V18.668Z" fill="#E8E8E8"/>
<path d="M22.6667 18.668H21.3333V20.0013H22.6667V18.668Z" fill="#E8E8E8"/>
<path d="M24 18.668H22.6667V20.0013H24V18.668Z" fill="#E8E8E8"/>
<path d="M1.33333 20H0V21.3333H1.33333V20Z" fill="#E8E8E8"/>
<path d="M2.66666 20H1.33333V21.3333H2.66666V20Z" fill="#E8E8E8"/>
<path d="M22.6667 20H21.3333V21.3333H22.6667V20Z" fill="#E8E8E8"/>
<path d="M24 20H22.6667V21.3333H24V20Z" fill="#E8E8E8"/>
<path d="M1.33333 21.332H0V22.6654H1.33333V21.332Z" fill="#E8E8E8"/>
<path d="M2.66666 21.332H1.33333V22.6654H2.66666V21.332Z" fill="#E8E8E8"/>
<path d="M4.00001 21.332H2.66667V22.6654H4.00001V21.332Z" fill="#E8E8E8"/>
<path d="M5.33333 21.332H4V22.6654H5.33333V21.332Z" fill="#E8E8E8"/>
<path d="M20 21.332H18.6667V22.6654H20V21.332Z" fill="#E8E8E8"/>
<path d="M21.3333 21.332H20V22.6654H21.3333V21.332Z" fill="#E8E8E8"/>
<path d="M1.33333 22.668H0V24.0013H1.33333V22.668Z" fill="#E8E8E8"/>
<path d="M2.66666 22.668H1.33333V24.0013H2.66666V22.668Z" fill="#E8E8E8"/>
<path d="M4.00001 22.668H2.66667V24.0013H4.00001V22.668Z" fill="#E8E8E8"/>
<path d="M5.33333 22.668H4V24.0013H5.33333V22.668Z" fill="#E8E8E8"/>
<path d="M20 22.668H18.6667V24.0013H20V22.668Z" fill="#E8E8E8"/>
<path d="M21.3333 22.668H20V24.0013H21.3333V22.668Z" fill="#E8E8E8"/>
<path d="M1.33333 24H0V25.3333H1.33333V24Z" fill="#E8E8E8"/>
<path d="M2.66666 24H1.33333V25.3333H2.66666V24Z" fill="#E8E8E8"/>
<path d="M4.00001 24H2.66667V25.3333H4.00001V24Z" fill="#E8E8E8"/>
<path d="M5.33333 24H4V25.3333H5.33333V24Z" fill="#E8E8E8"/>
<path d="M6.66666 24H5.33333V25.3333H6.66666V24Z" fill="#E8E8E8"/>
<path d="M8.00001 24H6.66667V25.3333H8.00001V24Z" fill="#E8E8E8"/>
<path d="M17.3333 24H16V25.3333H17.3333V24Z" fill="#E8E8E8"/>
<path d="M18.6667 24H17.3333V25.3333H18.6667V24Z" fill="#E8E8E8"/>
<path d="M1.33333 25.332H0V26.6654H1.33333V25.332Z" fill="#E8E8E8"/>
<path d="M2.66666 25.332H1.33333V26.6654H2.66666V25.332Z" fill="#E8E8E8"/>
<path d="M4.00001 25.332H2.66667V26.6654H4.00001V25.332Z" fill="#E8E8E8"/>
<path d="M5.33333 25.332H4V26.6654H5.33333V25.332Z" fill="#E8E8E8"/>
<path d="M6.66666 25.332H5.33333V26.6654H6.66666V25.332Z" fill="#E8E8E8"/>
<path d="M8.00001 25.332H6.66667V26.6654H8.00001V25.332Z" fill="#E8E8E8"/>
<path d="M17.3333 25.332H16V26.6654H17.3333V25.332Z" fill="#E8E8E8"/>
<path d="M18.6667 25.332H17.3333V26.6654H18.6667V25.332Z" fill="#E8E8E8"/>
<path d="M1.33333 26.668H0V28.0013H1.33333V26.668Z" fill="#E8E8E8"/>
<path d="M2.66666 26.668H1.33333V28.0013H2.66666V26.668Z" fill="#E8E8E8"/>
<path d="M4.00001 26.668H2.66667V28.0013H4.00001V26.668Z" fill="#E8E8E8"/>
<path d="M5.33333 26.668H4V28.0013H5.33333V26.668Z" fill="#E8E8E8"/>
<path d="M6.66666 26.668H5.33333V28.0013H6.66666V26.668Z" fill="#E8E8E8"/>
<path d="M8.00001 26.668H6.66667V28.0013H8.00001V26.668Z" fill="#E8E8E8"/>
<path d="M9.33333 26.668H8V28.0013H9.33333V26.668Z" fill="#E8E8E8"/>
<path d="M10.6667 26.668H9.33333V28.0013H10.6667V26.668Z" fill="#E8E8E8"/>
<path d="M14.6667 26.668H13.3333V28.0013H14.6667V26.668Z" fill="#E8E8E8"/>
<path d="M16 26.668H14.6667V28.0013H16V26.668Z" fill="#E8E8E8"/>
<path d="M1.33333 28H0V29.3333H1.33333V28Z" fill="#E8E8E8"/>
<path d="M2.66666 28H1.33333V29.3333H2.66666V28Z" fill="#E8E8E8"/>
<path d="M4.00001 28H2.66667V29.3333H4.00001V28Z" fill="#E8E8E8"/>
<path d="M5.33333 28H4V29.3333H5.33333V28Z" fill="#E8E8E8"/>
<path d="M6.66666 28H5.33333V29.3333H6.66666V28Z" fill="#E8E8E8"/>
<path d="M8.00001 28H6.66667V29.3333H8.00001V28Z" fill="#E8E8E8"/>
<path d="M9.33333 28H8V29.3333H9.33333V28Z" fill="#E8E8E8"/>
<path d="M10.6667 28H9.33333V29.3333H10.6667V28Z" fill="#E8E8E8"/>
<path d="M14.6667 28H13.3333V29.3333H14.6667V28Z" fill="#E8E8E8"/>
<path d="M16 28H14.6667V29.3333H16V28Z" fill="#E8E8E8"/>
<path d="M1.33333 29.332H0V30.6654H1.33333V29.332Z" fill="#E8E8E8"/>
<path d="M2.66666 29.332H1.33333V30.6654H2.66666V29.332Z" fill="#E8E8E8"/>
<path d="M4.00001 29.332H2.66667V30.6654H4.00001V29.332Z" fill="#E8E8E8"/>
<path d="M5.33333 29.332H4V30.6654H5.33333V29.332Z" fill="#E8E8E8"/>
<path d="M6.66666 29.332H5.33333V30.6654H6.66666V29.332Z" fill="#E8E8E8"/>
<path d="M8.00001 29.332H6.66667V30.6654H8.00001V29.332Z" fill="#E8E8E8"/>
<path d="M9.33333 29.332H8V30.6654H9.33333V29.332Z" fill="#E8E8E8"/>
<path d="M10.6667 29.332H9.33333V30.6654H10.6667V29.332Z" fill="#E8E8E8"/>
<path d="M12 29.332H10.6667V30.6654H12V29.332Z" fill="#E8E8E8"/>
<path d="M13.3333 29.332H12V30.6654H13.3333V29.332Z" fill="#E8E8E8"/>
<path d="M20 29.332H18.6667V30.6654H20V29.332Z" fill="#E8E8E8"/>
<path d="M21.3333 29.332H20V30.6654H21.3333V29.332Z" fill="#E8E8E8"/>
<path d="M22.6667 29.332H21.3333V30.6654H22.6667V29.332Z" fill="#E8E8E8"/>
<path d="M24 29.332H22.6667V30.6654H24V29.332Z" fill="#E8E8E8"/>
<path d="M25.3333 29.332H24V30.6654H25.3333V29.332Z" fill="#E8E8E8"/>
<path d="M26.6667 29.332H25.3333V30.6654H26.6667V29.332Z" fill="#E8E8E8"/>
<path d="M28 29.332H26.6667V30.6654H28V29.332Z" fill="#E8E8E8"/>
<path d="M29.3333 29.332H28V30.6654H29.3333V29.332Z" fill="#E8E8E8"/>
<path d="M30.6667 29.332H29.3333V30.6654H30.6667V29.332Z" fill="#E8E8E8"/>
<path d="M32 29.332H30.6667V30.6654H32V29.332Z" fill="#E8E8E8"/>
<path d="M1.33333 30.668H0V32.0013H1.33333V30.668Z" fill="#E8E8E8"/>
<path d="M2.66666 30.668H1.33333V32.0013H2.66666V30.668Z" fill="#E8E8E8"/>
<path d="M4.00001 30.668H2.66667V32.0013H4.00001V30.668Z" fill="#E8E8E8"/>
<path d="M5.33333 30.668H4V32.0013H5.33333V30.668Z" fill="#E8E8E8"/>
<path d="M6.66666 30.668H5.33333V32.0013H6.66666V30.668Z" fill="#E8E8E8"/>
<path d="M8.00001 30.668H6.66667V32.0013H8.00001V30.668Z" fill="#E8E8E8"/>
<path d="M9.33333 30.668H8V32.0013H9.33333V30.668Z" fill="#E8E8E8"/>
<path d="M10.6667 30.668H9.33333V32.0013H10.6667V30.668Z" fill="#E8E8E8"/>
<path d="M12 30.668H10.6667V32.0013H12V30.668Z" fill="#E8E8E8"/>
<path d="M13.3333 30.668H12V32.0013H13.3333V30.668Z" fill="#E8E8E8"/>
<path d="M20 30.668H18.6667V32.0013H20V30.668Z" fill="#E8E8E8"/>
<path d="M21.3333 30.668H20V32.0013H21.3333V30.668Z" fill="#E8E8E8"/>
<path d="M22.6667 30.668H21.3333V32.0013H22.6667V30.668Z" fill="#E8E8E8"/>
<path d="M24 30.668H22.6667V32.0013H24V30.668Z" fill="#E8E8E8"/>
<path d="M25.3333 30.668H24V32.0013H25.3333V30.668Z" fill="#E8E8E8"/>
<path d="M26.6667 30.668H25.3333V32.0013H26.6667V30.668Z" fill="#E8E8E8"/>
<path d="M28 30.668H26.6667V32.0013H28V30.668Z" fill="#E8E8E8"/>
<path d="M29.3333 30.668H28V32.0013H29.3333V30.668Z" fill="#E8E8E8"/>
<path d="M30.6667 30.668H29.3333V32.0013H30.6667V30.668Z" fill="#E8E8E8"/>
<path d="M32 30.668H30.6667V32.0013H32V30.668Z" fill="#E8E8E8"/>
</svg>
